# xmcd
#
# Track frame offsets:
#	150
#	14684
#	28523
#	46820
#	65898
#	84194
#	98754
#	115756
#	130095
#	149459
#	164361
#	180156
#	196364
#	216930
#	230939
#	251548
#	269056
#	285547
#	302653
#	315981
# Disc length: 4416 seconds
# Revision: 1
# Processed by: cddbd v1.5.2PL0 Copyright (c) Steve Scherf et al.
#
# Submitted via: libkcddb 0.31
#
DISCID=1d113e14
DTITLE=Just Bob - Images
DYEAR=2004
DGENRE=Country
TTITLE0=Alright On The Night
TTITLE1=Still Missing You
TTITLE2=You're My Kind Of Girl
TTITLE3=Images
TTITLE4=Ride Of Life
TTITLE5=Just A Man
TTITLE6=Come On
TTITLE7=Sometimes
TTITLE8=Bygone Rocker
TTITLE9=Give It Up
TTITLE10=Crying
TTITLE11=Don't Break My Aching Heart
TTITLE12=D.I.Y.
TTITLE13=Without You
TTITLE14=Friends
TTITLE15=Lucky Smile
TTITLE16=Soaps
TTITLE17=You've Changed My Life Forever
TTITLE18=Ballad Of Henry Blogg
TTITLE19=Yes, It's Christmas Time
EXTD=www.thesongfactory.co.uk
EXTT0=
EXTT1=
EXTT2=
EXTT3=
EXTT4=
EXTT5=
EXTT6=
EXTT7=
EXTT8=
EXTT9=
EXTT10=
EXTT11=
EXTT12=
EXTT13=
EXTT14=
EXTT15=
EXTT16=
EXTT17=
EXTT18=
EXTT19=
PLAYORDER=
